<?xml version="1.0" encoding="utf-8"?>
<!-- Generator: Adobe Illustrator 25.2.3, SVG Export Plug-In . SVG Version: 6.00 Build 0)  -->
<svg version="1.1" id="Layer_1" xmlns="http://www.w3.org/2000/svg" xmlns:xlink="http://www.w3.org/1999/xlink" x="0px" y="0px"
	 viewBox="0 0 500 500" style="enable-background:new 0 0 500 500;" xml:space="preserve">
<style type="text/css">
	.st0{fill:#FFEBD4;}
	.st1{enable-background:new    ;}
</style>
<g>
	<g>
		<g>
			<path class="st0" d="M307.6,135.5c5.1,1,10,2.2,15,3.2c7.5,1.6,15,3.2,22.5,4.8c4.7,1,8.3,4.9,8.9,9.4c0.6,4.8-1.9,9.6-6.4,11.5
				c-17.1,7.4-34.2,15-51.5,21.6c-15.8,6.1-32.4,8.2-49.4,7.7c-21.1-0.6-41-6.1-60-15.2c-10.7-5.1-21.6-9.3-32.6-13.8
				c-4.8-2-7.8-6.4-7.4-11.1c0.4-5.5,3.9-9.3,9.3-10.5c2.9-0.7,5.9-1.2,8.9-1.9c8.9-1.9,17.8-3.8,26.7-5.7c0.5-0.1,0.9-0.3,1.6-0.4
				c0-3.4,0-6.7,0-10c0-3.9,0-7.8,0-11.7c0.1-9.2,6.1-16.2,15.1-18c21.7-4.2,43.6-5.2,65.7-2.8c6.3,0.7,12.6,1.7,18.9,2.9
				c9,1.7,14.7,8.9,14.8,17.9c0.1,6.2,0,12.6,0,18.9C307.6,133.6,307.6,134.5,307.6,135.5z M294.6,115.3c0.1-4.3-1.2-6-4.8-6.7
				c-5.3-0.9-10.6-1.8-15.8-2.5c-21-2.5-42-1.7-62.9,2.4c-3.7,0.8-5,2.3-5,6.1c0,9.4,0,19,0,28.5c0,0.7,0.1,1.4,0.1,2.1
				c0.8,0.3,1.3,0.4,2,0.6c17.4,4.9,35.1,6.4,53.1,5.4c10.7-0.7,21.2-2.5,31.5-5.5c0.7-0.2,1.7-0.9,1.7-1.4c0.2-5.4,0.1-10.7,0.1-16
				c-6.3,0.9-12.4,2-18.4,2.7c-17.1,2.1-34.3,2.1-51.4,0.2c-4.2-0.4-6.7-3.2-6.4-7.2c0.3-3.7,3.2-6.1,7.4-5.8
				c14.3,1.3,28.5,1.8,42.8,0.5C277.1,117.9,285.8,116.4,294.6,115.3z M307.7,148.9c0.1,4.2-1.9,6.8-5.8,7.9
				C268,167,234,167.2,200,157.2c-4.2-1.2-7.4-3.2-7-8.2c-9.4,2-18.6,4-28.4,6c1.1,0.6,1.6,0.9,2.3,1c10.4,4.5,20.9,8.9,31.2,13.6
				c32.6,14.6,65.5,15.6,98.6,2.6c13.1-5.1,25.7-11.2,38.5-16.9c0.1-0.1,0.2-0.3,0.3-0.6C326.2,152.8,317.2,150.9,307.7,148.9z"/>
			<path class="st0" d="M195.1,214.5c-2.5,0.7-4.9,1.3-7.4,1.9c-1.2,0.3-1.5,0.9-1.2,2.1c1.1,4.9,2.2,10,3.4,14.9
				c0.2,0.9,1,1.6,1.7,2.1c8.3,5.9,16.6,11.5,24.9,17.4c4,2.7,4.4,7.4,1.3,10.5c-2.4,2.3-5.4,2.5-8.5,0.3
				c-6.1-4.2-12.1-8.3-18.1-12.5c-1-0.8-2.3-1.3-3.1-2.3c-3.4-3.3-7.1-3.6-11.5-2.4c-6.5,1.7-13.2,2.9-19.8,4.2
				c-1.7,0.3-2.5,1.1-2.9,2.8c-3.2,11.7-6.6,23.3-9.9,35c-0.8,2.7-2.1,5-5.1,5.8c-5.2,1.2-9.2-3.1-7.6-8.6
				c1.7-6.2,3.6-12.5,5.3-18.6c2.1-7.2,4.2-14.3,6-21.4c1-4.2,3.4-6.1,7.5-6.9c8-1.5,16-3.3,23.9-4.9c0.9-0.2,1.6-0.4,2.6-0.7
				c-1-4.9-2.1-9.7-2.9-14.5c-1.3-6.8,1.9-12.3,8.6-14.2c5.5-1.6,11-2.9,16.5-4.2c3.5-0.9,6.4,1.2,7.6,4.9c0.8,2.3,1.5,4.5,2.5,6.8
				c2.9,6.6,8.1,11.2,14.3,14.5c9.6,5.1,19.3,10.3,29,15.2c3.6,1.8,5.3,4.4,5.2,8.6c-0.2,12.4,0,24.7-0.1,37.1c0,3.6-1.8,6.1-4.6,7
				c-4.4,1.1-8.3-1.8-8.3-6.6c-0.1-11-0.1-21.8,0-32.8c0-1.9-0.5-2.9-2.3-3.8c-8.5-4.3-17-8.9-25.4-13.4c-9.3-4.9-16.2-12-20.3-21.7
				c-0.2-0.3-0.3-0.8-0.5-1C195.2,214.8,195.1,214.7,195.1,214.5z"/>
			<path class="st0" d="M305.7,214.4c-2.9,7.1-7.1,13.2-13,17.7c-4.1,3-8.6,5.5-13,8c-3.2,1.7-6.8,0.3-8.6-2.9
				c-1.6-2.9-0.5-6.7,2.5-8.6c1.4-0.9,2.8-1.5,4.2-2.3c8.1-4.2,13.8-10.7,16.6-19.5c0.3-0.9,0.6-1.8,0.9-2.7
				c1.3-3.1,4.2-4.7,7.6-3.9c5.3,1.3,10.6,2.5,15.8,4.1c7.1,2,10.3,7.4,8.9,14.6c-0.9,4.7-1.9,9.3-2.9,14.3c3.4,0.8,6.7,1.5,10,2.2
				c5.6,1.2,11.2,2.5,16.9,3.6c3.6,0.7,5.6,2.7,6.5,6.1c3.8,13.5,7.6,27,11.4,40.5c0.9,3.4,0.2,6-2.3,7.7c-2.1,1.5-5.4,1.8-7.4,0
				c-1.4-1.2-2.5-3-3.1-4.8c-3.5-11.7-6.8-23.5-10-35.2c-0.4-1.6-1.1-2.2-2.6-2.5c-8-1.6-15.9-3.5-23.9-5c-1.1-0.3-2.7,0.2-3.7,0.9
				c-8.3,5.6-16.5,11.3-24.9,17.1c-4.4,3-9.8,0.9-10.5-4.2c-0.4-2.9,0.9-5,3.3-6.7c6.1-4.2,12.1-9,18.5-12.6c6-3.5,9.5-7.9,10-14.9
				c0.2-2.2,0.9-4.2,1.3-6.2c0.3-1.4,0.2-2.3-1.5-2.5C310.7,215.8,308.3,215.1,305.7,214.4z"/>
		</g>
	</g>
	<g class="st1">
		<path class="st0" d="M92.7,407.2l-4.1-12.1H59.1l-4.2,12.1H34.3l28.4-77.1h22.7l28.4,77.1H92.7z M65,377.3h17.7l-8.8-26.1
			L65,377.3z"/>
		<path class="st0" d="M154.7,348.8c6.4,0,11.6,1.9,15.6,5.8c4,3.9,5.9,9.1,5.9,15.5v37h-18.1v-30.9c0-2.9-0.9-5.4-2.6-7.2
			s-4.1-2.7-6.9-2.7c-3.1,0-5.5,1-7.4,2.8s-2.9,4.3-2.9,7.3v30.7h-18.1v-57h18.1v5C142.6,351,148.1,348.8,154.7,348.8z"/>
		<path class="st0" d="M214.7,408.6c-5.8,0-11.1-1.3-15.8-3.9c-4.7-2.6-8.4-6.1-11.1-10.7c-2.7-4.5-4-9.6-4-15.2
			c0-5.6,1.3-10.7,4-15.2c2.7-4.5,6.3-8.1,11.1-10.7c4.7-2.6,10-3.9,15.8-3.9c8.7,0,16.1,2.9,22,8.6c5.9,5.7,8.8,12.8,8.8,21.3
			c0,8.5-2.9,15.6-8.8,21.3C230.8,405.7,223.5,408.6,214.7,408.6z M214.7,391c3.5,0,6.4-1.2,8.7-3.6c2.3-2.3,3.5-5.3,3.5-8.7
			c0-3.6-1.2-6.5-3.6-8.8s-5.3-3.6-8.7-3.6c-3.6,0-6.5,1.2-8.7,3.6c-2.3,2.3-3.5,5.3-3.5,8.8s1.1,6.5,3.5,8.7
			C208.3,389.8,211.2,391,214.7,391z"/>
		<path class="st0" d="M288.8,348.8c6.4,0,11.6,1.9,15.6,5.8c4,3.9,5.9,9.1,5.9,15.5v37h-18.1v-30.9c0-2.9-0.9-5.4-2.6-7.2
			c-1.7-1.8-4.1-2.7-6.9-2.7c-3.1,0-5.5,1-7.4,2.8c-1.9,1.8-2.9,4.3-2.9,7.3v30.7h-18.1v-57h18.1v5
			C276.7,351,282.2,348.8,288.8,348.8z"/>
		<path class="st0" d="M369.1,330.1h19.2v77.1h-19.2v-29.7h-27.7v29.7h-19.2v-77.1h19.2v29.3h27.7V330.1z"/>
		<path class="st0" d="M442.8,407.2l-13.9-25.1h-7.6v25.1H402v-77.1h34c5.2,0,9.9,1.1,14,3.4c4.2,2.3,7.5,5.5,9.9,9.5
			c2.3,4.1,3.6,8.6,3.6,13.6c0,5-1.3,9.6-3.9,13.6s-6.1,7-10.7,9.2l16.7,28h-22.9V407.2z M421.2,348.2v17.1h14.3
			c2.4,0,4.4-0.8,6-2.4c1.6-1.6,2.4-3.7,2.4-6.1c0-2.4-0.8-4.4-2.4-6.1c-1.6-1.6-3.6-2.4-6-2.4L421.2,348.2L421.2,348.2z"/>
	</g>
</g>
</svg>
