<?xml version="1.0" encoding="utf-8"?>
<!-- Generator: Adobe Illustrator 25.2.3, SVG Export Plug-In . SVG Version: 6.00 Build 0)  -->
<svg version="1.1" id="Layer_1" xmlns="http://www.w3.org/2000/svg" xmlns:xlink="http://www.w3.org/1999/xlink" x="0px" y="0px"
	 viewBox="0 0 500 500" style="enable-background:new 0 0 500 500;" xml:space="preserve">
<style type="text/css">
	.st0{fill:#FFEBD4;}
</style>
<g>
	<g>
		<path class="st0" d="M369.9,129.6c10.7,2.2,21,4.5,31.3,6.7c15.7,3.3,31.3,6.7,47,10c9.8,2.1,17.4,10.3,18.6,19.8
			c1.2,10-4,20.1-13.4,24.1c-35.8,15.3-71.5,31.3-107.8,45.3c-32.9,12.7-67.7,17.2-103.2,16.2c-44.3-1.2-85.8-12.7-125.5-31.9
			c-22.2-10.7-45.3-19.3-68.2-28.8c-10-4.1-16.4-13.4-15.5-23.2c0.9-11.4,8.1-19.5,19.3-21.9c6.2-1.4,12.4-2.6,18.6-4
			c18.6-4,37.2-7.9,55.8-11.9c1-0.2,1.9-0.5,3.4-0.9c0-7.1,0-13.9,0-20.8c0-8.1,0-16.4,0-24.5c0.2-19.1,12.7-33.9,31.5-37.7
			c45.5-9,91.3-10.8,137.4-5.9c13.3,1.4,26.5,3.6,39.4,6c18.8,3.6,30.8,18.6,31,37.5c0.2,13.1,0,26.3,0,39.4
			C369.9,125.6,369.9,127.4,369.9,129.6z M342.5,87.2c0.2-9.1-2.6-12.6-10-13.9c-11-1.9-22-3.8-33.1-5.2c-44.1-5.3-87.8-3.6-131.4,5
			c-7.7,1.5-10.5,4.8-10.5,12.7c0,19.8,0,39.6,0,59.6c0,1.4,0.2,2.9,0.2,4.3c1.5,0.5,2.8,0.9,4.1,1.2
			c36.3,10.3,73.4,13.4,110.9,11.2c22.4-1.4,44.4-5.3,66-11.4c1.4-0.3,3.6-1.9,3.6-2.9c0.3-11.2,0.2-22.2,0.2-33.4
			c-13.3,1.9-25.8,4.1-38.6,5.7c-35.8,4.1-71.6,4.1-107.5,0.2c-8.6-0.9-13.9-6.7-13.4-15c0.5-7.7,6.7-12.9,15.3-12.1
			c29.8,2.8,59.6,3.8,89.4,1C306.2,92.6,324.2,89.6,342.5,87.2z M370.1,157.5c0.2,9-4,14.1-12.1,16.5c-71,21.4-141.9,21.9-213,0.9
			c-9-2.6-15.3-6.7-14.6-17.2c-19.6,4.1-38.9,8.3-59.4,12.6c2.4,1.2,3.4,1.7,4.6,2.2c21.7,9.5,43.6,18.6,65.1,28.4
			c68,30.7,136.9,32.5,206.1,5.5c27.4-10.7,53.7-23.4,80.6-35.3c0.2-0.2,0.3-0.5,0.5-1.2C408.8,165.8,389.9,161.6,370.1,157.5z"/>
		<path class="st0" d="M134.5,294.7c-5.2,1.4-10.3,2.8-15.5,4c-2.6,0.5-3.1,1.9-2.6,4.3c2.4,10.3,4.5,20.8,7.1,31.2
			c0.3,1.7,2.1,3.3,3.6,4.3c17.4,12.2,34.8,24.1,52.2,36.3c8.3,5.7,9.3,15.3,2.8,21.9c-5,4.8-11.2,5.2-17.7,0.7
			c-12.7-8.6-25.3-17.4-37.9-26c-2.2-1.5-4.6-2.8-6.5-4.6c-7.1-6.9-14.8-7.6-24.1-5c-13.6,3.6-27.7,6.2-41.5,9
			c-3.6,0.7-5.2,2.4-6.2,5.9c-6.7,24.5-13.8,48.7-20.7,73.2c-1.5,5.7-4.3,10.5-10.7,12.1c-10.8,2.6-19.1-6.5-16-17.9
			c3.6-13.1,7.4-26,11-38.9c4.3-15,8.8-29.8,12.6-44.8c2.2-8.6,7.1-12.9,15.7-14.5c16.7-3.1,33.4-6.9,49.9-10.3
			c1.7-0.3,3.4-0.9,5.5-1.4c-2.1-10.3-4.3-20.3-6.2-30.5c-2.8-14.1,4-25.7,17.9-29.6c11.4-3.3,22.9-6,34.4-8.8
			c7.2-1.7,13.4,2.6,16,10.3c1.5,4.8,3.1,9.5,5.2,14.1c6.2,13.8,16.9,23.4,30,30.3c20.1,10.7,40.3,21.5,60.6,31.9
			c7.6,3.8,11,9.3,10.8,17.9c-0.3,25.8,0,51.7-0.2,77.5c0,7.6-3.8,12.9-9.6,14.6c-9.3,2.4-17.4-3.8-17.4-13.8
			c-0.2-22.9-0.2-45.6,0-68.5c0-4-1-6-4.8-7.9c-17.7-9.1-35.5-18.6-53-28.1c-19.3-10.3-33.9-25.1-42.5-45.5c-0.3-0.7-0.7-1.5-1-2.2
			C135,295.3,134.8,295.1,134.5,294.7z"/>
		<path class="st0" d="M365.9,294.6c-6.2,14.8-14.8,27.6-27.2,37c-8.4,6.4-17.9,11.5-27.2,16.7c-6.7,3.6-14.3,0.7-17.9-6
			c-3.3-6.2-1-13.9,5.3-17.9c2.9-1.7,5.9-3.1,8.8-4.6c17-9,28.8-22.4,34.8-40.8c0.7-1.9,1.2-3.8,1.9-5.7c2.8-6.5,9-9.8,15.8-8.1
			c11,2.8,22,5.3,32.9,8.4c14.8,4.1,21.5,15.5,18.6,30.7c-1.9,9.8-4,19.5-6.2,30c7.1,1.5,13.9,3.1,20.8,4.5
			c11.7,2.6,23.4,5.2,35.3,7.4c7.4,1.4,11.7,5.7,13.6,12.7c7.9,28.2,15.8,56.5,23.9,84.7c1.9,7.1,0.3,12.6-4.6,16.2
			c-4.3,3.1-11.2,3.8-15.5,0c-2.9-2.6-5.3-6.4-6.5-10.2c-7.2-24.5-14.1-49.1-20.8-73.5c-0.9-3.3-2.4-4.5-5.5-5.2
			c-16.7-3.4-33.2-7.2-49.9-10.5c-2.4-0.5-5.7,0.3-7.7,1.7c-17.4,11.7-34.6,23.8-52,35.6c-9.3,6.4-20.5,1.7-21.9-8.8
			c-0.9-6,1.9-10.5,6.9-13.9c12.9-8.8,25.3-18.8,38.7-26.5c12.6-7.2,20-16.5,20.8-31.2c0.3-4.5,1.7-8.8,2.8-13.1
			c0.7-2.9,0.3-4.6-3.1-5.3C376.3,297.5,371.4,296,365.9,294.6z"/>
	</g>
</g>
</svg>
