<?xml version="1.0" encoding="utf-8"?>
<!-- Generator: Adobe Illustrator 25.2.3, SVG Export Plug-In . SVG Version: 6.00 Build 0)  -->
<svg version="1.1" id="Layer_1" xmlns="http://www.w3.org/2000/svg" xmlns:xlink="http://www.w3.org/1999/xlink" x="0px" y="0px"
	 viewBox="0 0 500 500" style="enable-background:new 0 0 500 500;" xml:space="preserve">
<style type="text/css">
	.st0{fill:#FFEBD4;}
	.st1{enable-background:new    ;}
</style>
<g>
	<g>
		<path class="st0" d="M316.2,101.9c5.9,1.2,11.6,2.5,17.3,3.7c8.7,1.8,17.3,3.7,26,5.5c5.4,1.1,9.6,5.7,10.3,10.9
			c0.7,5.5-2.2,11.1-7.4,13.3c-19.8,8.5-39.5,17.3-59.5,25c-18.2,7-37.4,9.5-57,8.9c-24.4-0.7-47.4-7-69.3-17.6
			c-12.3-5.9-25-10.7-37.7-15.9c-5.5-2.3-9-7.4-8.6-12.8c0.5-6.3,4.5-10.7,10.7-12.1c3.4-0.8,6.8-1.4,10.3-2.2
			c10.3-2.2,20.5-4.4,30.8-6.6c0.6-0.1,1-0.3,1.9-0.5c0-3.9,0-7.7,0-11.5c0-4.5,0-9,0-13.5c0.1-10.6,7-18.7,17.4-20.8
			c25.1-4.9,50.4-6,75.9-3.2c7.3,0.8,14.6,2,21.8,3.3c10.4,2,17,10.3,17.1,20.7c0.1,7.2,0,14.6,0,21.8
			C316.2,99.7,316.2,100.7,316.2,101.9z M301.1,78.5c0.1-5-1.4-6.9-5.5-7.7c-6.1-1-12.2-2.1-18.3-2.9c-24.3-2.9-48.5-2-72.6,2.8
			c-4.3,0.9-5.8,2.7-5.8,7c0,10.9,0,21.9,0,32.9c0,0.8,0.1,1.6,0.1,2.4c0.9,0.3,1.5,0.5,2.3,0.7c20.1,5.7,40.5,7.4,61.3,6.2
			c12.4-0.8,24.5-2.9,36.4-6.3c0.8-0.2,2-1,2-1.6c0.2-6.2,0.1-12.3,0.1-18.5c-7.3,1-14.3,2.3-21.3,3.1C260,99,240.2,99,220.4,96.8
			c-4.8-0.5-7.7-3.7-7.4-8.3c0.3-4.3,3.7-7.1,8.5-6.7c16.5,1.5,32.9,2.1,49.4,0.6C281,81.5,291,79.8,301.1,78.5z M316.3,117.3
			c0.1,4.9-2.2,7.8-6.7,9.1c-39.2,11.8-78.4,12.1-117.7,0.5c-4.9-1.4-8.5-3.7-8.1-9.5c-10.8,2.3-21.5,4.6-32.8,6.9
			c1.3,0.7,1.9,1,2.6,1.2c12,5.2,24.1,10.3,36,15.7c37.6,16.9,75.6,18,113.9,3c15.1-5.9,29.7-12.9,44.5-19.5
			c0.1-0.1,0.2-0.3,0.3-0.7C337.7,121.9,327.2,119.6,316.3,117.3z"/>
		<path class="st0" d="M186.2,193.1c-2.9,0.8-5.7,1.5-8.6,2.2c-1.4,0.3-1.7,1-1.4,2.4c1.3,5.7,2.5,11.5,3.9,17.2
			c0.2,1,1.1,1.8,2,2.4c9.6,6.8,19.2,13.3,28.8,20.1c4.6,3.1,5.1,8.5,1.5,12.1c-2.8,2.7-6.2,2.9-9.8,0.4c-7-4.8-14-9.6-20.9-14.4
			c-1.2-0.9-2.6-1.5-3.6-2.6c-3.9-3.8-8.2-4.2-13.3-2.8c-7.5,2-15.3,3.4-22.9,4.9c-2,0.4-2.9,1.3-3.4,3.2
			c-3.7,13.5-7.6,26.9-11.4,40.4c-0.9,3.1-2.4,5.8-5.9,6.7c-6,1.4-10.6-3.6-8.8-9.9c2-7.2,4.1-14.4,6.1-21.5
			c2.4-8.3,4.9-16.5,6.9-24.7c1.2-4.8,3.9-7.1,8.7-8c9.2-1.7,18.5-3.8,27.6-5.7c1-0.2,1.9-0.5,3-0.8c-1.1-5.7-2.4-11.2-3.4-16.8
			c-1.5-7.8,2.2-14.2,9.9-16.4c6.3-1.8,12.7-3.3,19-4.9c4-1,7.4,1.4,8.8,5.7c0.9,2.7,1.7,5.2,2.9,7.8c3.4,7.6,9.3,12.9,16.5,16.7
			c11.1,5.9,22.3,11.9,33.5,17.6c4.2,2.1,6.1,5.1,6,9.9c-0.2,14.3,0,28.5-0.1,42.8c0,4.2-2.1,7.1-5.3,8.1c-5.1,1.3-9.6-2.1-9.6-7.6
			c-0.1-12.7-0.1-25.2,0-37.9c0-2.2-0.6-3.3-2.7-4.4c-9.8-5-19.6-10.3-29.3-15.5c-10.7-5.7-18.7-13.9-23.5-25.1
			c-0.2-0.4-0.4-0.9-0.6-1.2C186.4,193.4,186.3,193.3,186.2,193.1z"/>
		<path class="st0" d="M314,193c-3.4,8.2-8.2,15.2-15,20.4c-4.7,3.5-9.9,6.4-15,9.2c-3.7,2-7.9,0.4-9.9-3.3
			c-1.8-3.4-0.6-7.7,2.9-9.9c1.6-1,3.2-1.7,4.9-2.6c9.4-4.9,15.9-12.4,19.2-22.5c0.4-1,0.7-2.1,1-3.1c1.5-3.6,4.9-5.4,8.8-4.5
			c6.1,1.5,12.2,2.9,18.2,4.7c8.2,2.3,11.9,8.6,10.3,16.9c-1,5.4-2.2,10.7-3.4,16.5c3.9,0.9,7.7,1.7,11.5,2.5
			c6.5,1.4,12.9,2.9,19.5,4.1c4.1,0.8,6.5,3.1,7.5,7c4.4,15.6,8.8,31.2,13.2,46.8c1,3.9,0.2,6.9-2.6,8.9c-2.4,1.7-6.2,2.1-8.6,0
			c-1.6-1.4-2.9-3.5-3.6-5.6c-4-13.5-7.8-27.1-11.5-40.6c-0.5-1.8-1.3-2.5-3-2.9c-9.2-1.9-18.4-4-27.6-5.8c-1.3-0.3-3.1,0.2-4.3,1
			c-9.6,6.5-19.1,13.1-28.7,19.7c-5.1,3.5-11.3,1-12.1-4.9c-0.5-3.3,1-5.8,3.8-7.7c7.1-4.9,14-10.4,21.4-14.6
			c6.9-4,11-9.1,11.5-17.2c0.2-2.5,1-4.9,1.5-7.2c0.4-1.6,0.2-2.6-1.7-2.9C319.7,194.6,317,193.8,314,193z"/>
	</g>
</g>
<g class="st1">
	<path class="st0" d="M68,415.6l-4.7-14H29.2l-4.8,14H0.5l32.8-89h26.2l32.8,89H68z M36,381.1h20.4l-10.2-30.1L36,381.1z"/>
	<path class="st0" d="M139.6,348.2c7.4,0,13.4,2.2,18,6.7c4.6,4.5,6.8,10.5,6.8,17.9v42.7h-20.9v-35.7c0-3.4-1-6.2-3-8.3
		s-4.7-3.1-8-3.1c-3.6,0-6.4,1.1-8.6,3.2c-2.2,2.1-3.3,5-3.3,8.4v35.5H99.7v-65.8h20.9v5.8C125.6,350.7,132,348.2,139.6,348.2z"/>
	<path class="st0" d="M208.9,417.2c-6.7,0-12.8-1.5-18.2-4.5c-5.4-3-9.7-7.1-12.8-12.4c-3.1-5.2-4.6-11.1-4.6-17.6
		c0-6.5,1.5-12.3,4.6-17.6c3.1-5.2,7.3-9.4,12.8-12.4c5.4-3,11.5-4.5,18.2-4.5c10.1,0,18.6,3.3,25.4,9.9
		c6.8,6.6,10.2,14.8,10.2,24.6c0,9.8-3.4,18-10.2,24.6C227.5,413.9,219,417.2,208.9,417.2z M208.9,396.9c4,0,7.4-1.4,10.1-4.1
		c2.7-2.7,4-6.1,4-10.1c0-4.1-1.4-7.5-4.1-10.2c-2.7-2.7-6.1-4.1-10-4.1c-4.1,0-7.5,1.4-10.1,4.1c-2.7,2.7-4,6.1-4,10.2
		c0,4.1,1.3,7.5,4,10.1C201.5,395.5,204.8,396.9,208.9,396.9z"/>
	<path class="st0" d="M294.4,348.2c7.4,0,13.4,2.2,18,6.7c4.6,4.5,6.8,10.5,6.8,17.9v42.7h-20.9v-35.7c0-3.4-1-6.2-3-8.3
		c-2-2.1-4.7-3.1-8-3.1c-3.6,0-6.4,1.1-8.6,3.2c-2.2,2.1-3.3,5-3.3,8.4v35.5h-20.9v-65.8h20.9v5.8
		C280.5,350.7,286.8,348.2,294.4,348.2z"/>
	<path class="st0" d="M387.2,326.6h22.2v89h-22.2v-34.3h-32v34.3H333v-89h22.2v33.8h32V326.6z"/>
	<path class="st0" d="M472.3,415.6l-16.1-29h-8.8v29h-22.2v-89h39.3c6,0,11.4,1.3,16.2,3.9s8.7,6.3,11.4,11s4.2,9.9,4.2,15.7
		c0,5.8-1.5,11.1-4.5,15.7c-3,4.6-7.1,8.1-12.3,10.6l19.3,32.3H472.3z M447.4,347.5v19.7h16.5c2.8,0,5.1-0.9,6.9-2.8
		c1.8-1.9,2.8-4.3,2.8-7.1c0-2.8-0.9-5.1-2.8-7c-1.8-1.9-4.2-2.8-6.9-2.8H447.4z"/>
</g>
</svg>
