<?xml version="1.0" encoding="utf-8"?>
<!-- Generator: Adobe Illustrator 25.2.3, SVG Export Plug-In . SVG Version: 6.00 Build 0)  -->
<svg version="1.1" id="Layer_1" xmlns="http://www.w3.org/2000/svg" xmlns:xlink="http://www.w3.org/1999/xlink" x="0px" y="0px"
	 viewBox="0 0 500 500" style="enable-background:new 0 0 500 500;" xml:space="preserve">
<style type="text/css">
	.st0{fill:#FFEBD4;}
</style>
<g>
	<g>
		<path class="st0" d="M396,138.7H126.5c-5.7,0-10.3-4.6-10.3-10.3V104c0-5.7,4.6-10.3,10.3-10.3H396c5.7,0,10.3,4.6,10.3,10.3v24.4
			C406.3,134.1,401.7,138.7,396,138.7z"/>
	</g>
	<g>
		<path class="st0" d="M60,457.3L42.7,440c-4-4-4-10.5,0-14.6l317.9-317.9c4-4,10.5-4,14.6,0l17.3,17.3c4,4,4,10.5,0,14.6
			L74.5,457.3C70.5,461.3,64,461.3,60,457.3z"/>
	</g>
	<g>
		<path class="st0" d="M406.3,104v269.6c0,5.7-4.6,10.3-10.3,10.3h-24.4c-5.7,0-10.3-4.6-10.3-10.3V104c0-5.7,4.6-10.3,10.3-10.3
			H396C401.7,93.7,406.3,98.3,406.3,104z"/>
	</g>
</g>
</svg>
