<?xml version="1.0" encoding="utf-8"?>
<!-- Generator: Adobe Illustrator 25.2.3, SVG Export Plug-In . SVG Version: 6.00 Build 0)  -->
<svg version="1.1" id="Layer_1" xmlns="http://www.w3.org/2000/svg" xmlns:xlink="http://www.w3.org/1999/xlink" x="0px" y="0px"
	 viewBox="0 0 500 500" style="enable-background:new 0 0 500 500;" xml:space="preserve">
<style type="text/css">
	.st0{fill:#FFEBD4;}
	.st1{fill:#2A2E3B;}
</style>
<rect class="st0" width="500" height="500"/>
<g>
	<path class="st0" d="M461.2,250c0,47.3-15.6,91-41.8,126.2c-38.5,51.6-100.1,85-169.4,85s-130.9-33.4-169.4-85
		C54.3,341,38.8,297.3,38.8,250c0-116.7,94.6-211.2,211.2-211.2S461.2,133.3,461.2,250z"/>
	<g>
		<circle class="st1" cx="250" cy="181.9" r="97.3"/>
	</g>
	<g>
		<path class="st1" d="M419.4,376.2c-38.5,51.6-100.1,85-169.4,85s-130.9-33.4-169.4-85C125.4,335.7,184.8,311,250,311
			S374.6,335.7,419.4,376.2z"/>
	</g>
</g>
</svg>
