<?xml version="1.0" encoding="utf-8"?>
<!-- Generator: Adobe Illustrator 25.2.3, SVG Export Plug-In . SVG Version: 6.00 Build 0)  -->
<svg version="1.1" id="Layer_1" xmlns="http://www.w3.org/2000/svg" xmlns:xlink="http://www.w3.org/1999/xlink" x="0px" y="0px"
	 viewBox="0 0 500 500" style="enable-background:new 0 0 500 500;" xml:space="preserve">
<style type="text/css">
	.st0{fill:#FFEBD4;}
</style>
<g>
	<g>
		<path class="st0" d="M450.6,496.5L3.5,49.4c-4.7-4.7-4.7-12.2,0-16.9l29-29c4.7-4.7,12.2-4.7,16.9,0l447.1,447.1
			c4.7,4.7,4.7,12.2,0,16.9l-29,29C462.8,501.2,455.2,501.2,450.6,496.5z"/>
	</g>
	<g>
		<path class="st0" d="M32.5,496.5l-29-29c-4.7-4.7-4.7-12.2,0-16.9L450.6,3.5c4.7-4.7,12.2-4.7,16.9,0l29,29
			c4.7,4.7,4.7,12.2,0,16.9L49.4,496.5C44.8,501.2,37.2,501.2,32.5,496.5z"/>
	</g>
</g>
</svg>
