<?xml version="1.0" encoding="utf-8"?>
<!-- Generator: Adobe Illustrator 25.2.3, SVG Export Plug-In . SVG Version: 6.00 Build 0)  -->
<svg version="1.1" id="Layer_1" xmlns="http://www.w3.org/2000/svg" xmlns:xlink="http://www.w3.org/1999/xlink" x="0px" y="0px"
	 viewBox="0 0 500 500" style="enable-background:new 0 0 500 500;" xml:space="preserve">
<style type="text/css">
	.st0{fill:#FFEBD4;}
</style>
<g>
	<g>
		<path class="st0" d="M181.2,128.3c30.7,0,56.3,9.9,76.8,29.8c20.6,19.9,30.8,44.6,30.8,74.3c0,29.5-10.3,54.2-30.8,74.1
			c-20.6,19.9-46.2,29.8-76.8,29.8H120v91.6H45.4V128.3H181.2z M179.5,265.8c9.3,0,17.1-3.2,23.4-9.6c6.3-6.4,9.4-14.4,9.4-23.8
			c0-9.7-3.1-17.8-9.4-24.2c-6.3-6.4-14.1-9.5-23.4-9.5H120v67.2H179.5z"/>
		<path class="st0" d="M444.3,202.9h10.4v72.5h-10.4c-17.8,0-31.6,4.6-41.2,13.8c-9.7,9.2-14.5,21.7-14.5,37.5v101.1h-70.2V206.5
			h70.2v22C403.9,211.4,422.5,202.9,444.3,202.9z"/>
	</g>
	<polygon class="st0" points="347,98.3 382.4,99.8 359.7,127 369.2,161.2 336.3,147.9 306.7,167.5 309.2,132.1 281.4,110.1 
		315.8,101.5 328.2,68.2 	"/>
</g>
</svg>
